<?xml version="1.0" encoding="UTF-8" standalone="no"?>
<svg
   xmlns:dc="http://purl.org/dc/elements/1.1/"
   xmlns:cc="http://creativecommons.org/ns#"
   xmlns:rdf="http://www.w3.org/1999/02/22-rdf-syntax-ns#"
   xmlns:svg="http://www.w3.org/2000/svg"
   xmlns="http://www.w3.org/2000/svg"
   width="20"
   height="30"
   viewBox="0 0 5.2916 7.9374"
   version="1.1"
   id="svg8">
  <defs
     id="defs2" />
  <metadata
     id="metadata5">
    <rdf:RDF>
      <cc:Work
         rdf:about="">
        <dc:format>image/svg+xml</dc:format>
        <dc:type
           rdf:resource="http://purl.org/dc/dcmitype/StillImage" />
        <dc:title></dc:title>
      </cc:Work>
    </rdf:RDF>
  </metadata>
  <g
     id="layer1">
    <g
       id="g1388"
       transform="scale(0.1)">
      <path
         id="rect23"
         style="fill:#ffffff;fill-opacity:1;fill-rule:evenodd;stroke-width:0.236647"
         d="M 0,0 H 52.916 V 52.916 H 0 Z" />
      <path
         id="rect25"
         style="fill:#ffffff;fill-opacity:1;fill-rule:evenodd;stroke-width:0.529161"
         d="M 26.458,0 H 52.915998 V 79.374001 H 26.458 Z" />
      <path
         id="path29"
         style="fill:#ffffff;fill-opacity:1;fill-rule:evenodd;stroke-width:0.26458"
         d="M 52.916,52.916 A 26.458,26.458 0 0 1 26.458,79.374001 26.458,26.458 0 0 1 0,52.916 26.458,26.458 0 0 1 26.458,26.458 26.458,26.458 0 0 1 52.916,52.916 Z" />
    </g>
    <g
       id="g1383"
       style="fill:#003399;fill-opacity:1"
       transform="scale(0.1)">
      <path
         id="rect878"
         style="fill:#003399;fill-opacity:1;stroke-width:0.301668"
         d="M 2.6457989,1.3229001 H 50.2702 V 52.916002 H 2.6457989 Z" />
      <path
         id="rect880"
         style="fill:#003399;fill-opacity:1;stroke-width:0.26458"
         d="M 26.458,2.6458001 H 50.270201 V 76.728198 H 26.458 Z" />
      <path
         id="path884"
         style="fill:#003399;fill-opacity:1;stroke-width:0.26458"
         d="M 50.270201,52.916 A 23.812201,23.812201 0 0 1 26.458,76.728201 23.812201,23.812201 0 0 1 2.6457996,52.916 23.812201,23.812201 0 0 1 26.458,29.1038 23.812201,23.812201 0 0 1 50.270201,52.916 Z" />
    </g>
    <path
       style="fill:#000000;fill-opacity:1;stroke:none;stroke-width:0.026458px;stroke-linecap:butt;stroke-linejoin:miter;stroke-opacity:1"
       d="m 3.9687,0.6614502 c 0.39687,-0.39687 0.92603,0.13229 0.52916,0.52916 L 1.785915,3.9025552 4.49786,6.6145001 c 0.39687,0.39687 -0.13229,0.92603 -0.52916,0.52916 L 1.256755,4.4317151 c -0.52916,-0.5291599 -0.52916,-0.5291599 0,-1.0583199 z"
       id="path1368" />
  </g>
</svg>
